#N canvas 851 193 1058 555 12;
#X obj 844 1067 dac~;
#X obj 240 211 dbtorms;
#X obj 33 11 loadbang;
#X obj 854 1028 clip~ -1 1;
#X obj 204 381 noise~;
#X obj 21 653 -~ 0.5;
#X obj 62 730 +~;
#X obj 77 652 *~;
#X obj 95 618 *~;
#X obj 645 20 r yValue;
#X floatatom 490 52 5 0 1 0 - - -;
#X obj 38 573 phasor~;
#X floatatom 379 222 5 0 0 0 - - -;
#X obj 85 44 bng 15 250 50 0 empty empty empty 17 7 0 10 -262144 -1
-1;
#X obj 273 803 +~;
#X obj 151 581 phasor~;
#X obj 145 652 -~ 0.5;
#X obj 38 465 t f b;
#X obj 199 651 *~;
#X obj 217 617 *~;
#X obj 179 730 +~;
#X obj 294 581 phasor~;
#X obj 288 652 -~ 0.5;
#X obj 342 651 *~;
#X obj 360 617 *~;
#X obj 322 730 +~;
#X obj 171 516 random 10;
#X obj 314 516 random 10;
#X obj 366 189 mtof;
#X msg 392 146 65;
#X msg 544 926 roomsize 1;
#X msg 638 928 wet 1;
#X msg 379 924 width 0;
#X msg 455 924 damping 0.2;
#X obj 441 876 loadbang;
#X obj 568 849 *~ 0.3;
#X obj 875 900 *~;
#X obj 170 545 * 0.1;
#X obj 314 545 * 0.1;
#X obj 491 83 t f b;
#X obj 1020 803 r xValue;
#X floatatom 1043 892 10 0 0 0 - - -;
#X obj 853 974 +~;
#X obj 943 987 bp~;
#X obj 1065 952 loadbang;
#X obj 1022 837 * 5000;
#X msg 1053 987 25;
#X obj 239 260 s db, f 5;
#X obj 953 771 r db;
#X floatatom 97 271 5 0 0 0 - - -;
#X obj 66 228 *;
#X msg 68 178 60000;
#X msg 132 167 0.017;
#X obj 42 396 r freq;
#X obj 359 266 s freq;
#X obj 495 146 s val;
#X obj 403 430 r val;
#X obj 920 937 hip~;
#X obj 813 938 *~ 0.25;
#X obj 897 991 *~ 10;
#X msg 236 169 80;
#X obj 866 568 loadbang;
#X obj 836 761 line~;
#X obj 789 675 bng 15 250 50 0 empty empty empty 17 7 0 10 -262144
-1 -1;
#X obj 873 662 dbtorms;
#X msg 867 718 0 \, \$1 2000;
#X msg 869 614 80;
#X obj 199 423 *~ 0.5;
#X connect 1 0 47 0;
#X connect 2 0 13 0;
#X connect 3 0 0 0;
#X connect 3 0 0 1;
#X connect 4 0 67 0;
#X connect 5 0 6 0;
#X connect 6 0 14 0;
#X connect 7 0 6 1;
#X connect 8 0 7 1;
#X connect 9 0 10 0;
#X connect 10 0 39 0;
#X connect 11 0 5 0;
#X connect 11 0 8 0;
#X connect 12 0 54 0;
#X connect 13 0 10 0;
#X connect 13 0 51 0;
#X connect 13 0 52 0;
#X connect 13 0 29 0;
#X connect 14 0 35 0;
#X connect 15 0 16 0;
#X connect 15 0 19 0;
#X connect 16 0 20 0;
#X connect 17 0 11 0;
#X connect 17 0 15 0;
#X connect 17 0 21 0;
#X connect 17 1 26 0;
#X connect 17 1 27 0;
#X connect 18 0 20 1;
#X connect 19 0 18 1;
#X connect 20 0 14 1;
#X connect 21 0 22 0;
#X connect 21 0 24 0;
#X connect 22 0 25 0;
#X connect 23 0 25 1;
#X connect 24 0 23 1;
#X connect 25 0 14 1;
#X connect 26 0 37 0;
#X connect 27 0 38 0;
#X connect 28 0 12 0;
#X connect 29 0 28 0;
#X connect 34 0 32 0;
#X connect 34 0 33 0;
#X connect 34 0 30 0;
#X connect 34 0 31 0;
#X connect 35 0 36 0;
#X connect 36 0 43 0;
#X connect 36 0 57 0;
#X connect 37 0 15 1;
#X connect 38 0 21 1;
#X connect 39 0 55 0;
#X connect 39 1 60 0;
#X connect 40 0 45 0;
#X connect 41 0 43 1;
#X connect 41 0 57 1;
#X connect 42 0 3 0;
#X connect 43 0 59 0;
#X connect 44 0 46 0;
#X connect 45 0 41 0;
#X connect 46 0 43 2;
#X connect 50 0 49 0;
#X connect 51 0 50 0;
#X connect 52 0 50 1;
#X connect 53 0 17 0;
#X connect 56 0 24 1;
#X connect 56 0 19 1;
#X connect 56 0 8 1;
#X connect 57 0 58 0;
#X connect 58 0 42 0;
#X connect 59 0 42 1;
#X connect 60 0 1 0;
#X connect 61 0 66 0;
#X connect 62 0 36 1;
#X connect 63 0 65 0;
#X connect 64 0 65 0;
#X connect 65 0 62 0;
#X connect 66 0 64 0;
#X connect 67 0 23 0;
#X connect 67 0 18 0;
#X connect 67 0 7 0;
