#N canvas 731 445 927 615 12;
#X obj 422 310 loadbang;
#X obj 379 542 dac~;
#X obj 441 40 noise~;
#X floatatom 335 19 5 0 0 0 - - -;
#X obj 335 188 -~ 0.5;
#X obj 402 229 +~;
#X floatatom 418 360 5 0 80 0 - - -;
#X obj 426 488 clip~ -1 1;
#X obj 441 188 *~;
#X obj 467 157 *~;
#X obj 400 439 *~;
#X obj 335 75 phasor~ 330;
#X msg 487 359 80;
#X obj 419 399 dbtorms;
#X obj 485 88 r yValue;
#X obj 518 48 phasor~ 0.25;
#X msg 570 89 0;
#X msg 570 113 0.5;
#X msg 570 138 1;
#X connect 0 0 12 0;
#X connect 2 0 8 0;
#X connect 4 0 5 0;
#X connect 5 0 10 0;
#X connect 6 0 13 0;
#X connect 7 0 1 1;
#X connect 7 0 1 0;
#X connect 8 0 5 1;
#X connect 9 0 8 1;
#X connect 10 0 7 0;
#X connect 11 0 4 0;
#X connect 11 0 9 0;
#X connect 12 0 13 0;
#X connect 13 0 10 1;
#X connect 14 0 9 1;
#X connect 16 0 9 1;
#X connect 17 0 9 1;
#X connect 18 0 9 1;
